<?xml version="1.0" encoding="UTF-8"?>
<svg id="svg22" xmlns="http://www.w3.org/2000/svg" xmlns:xlink="http://www.w3.org/1999/xlink" viewBox="0 0 871.75 241.98">
  <defs>
    <style>
      .cls-1 {
        fill: none;
      }

      .cls-2 {
        clip-path: url(#clippath);
      }

      .cls-3 {
        mask: url(#mask);
      }

      .cls-4 {
        fill: #fff;
      }

      .cls-5 {
        fill: #1646ce;
      }
    </style>
    <clipPath id="clippath">
      <rect class="cls-1" x="-27.67" y="-148.64" width="960" height="540"/>
    </clipPath>
    <mask id="mask" x="-27.67" y="-148.64" width="960" height="540" maskUnits="userSpaceOnUse">
      <g id="mask0_8_2" data-name="mask0 8 2">
        <path id="path2" class="cls-4" d="m-27.67-148.64h960V391.36H-27.67V-148.64Z"/>
      </g>
    </mask>
  </defs>
  <g class="cls-2">
    <g id="g15">
      <g class="cls-3">
        <g id="g13">
          <path id="path5" class="cls-5" d="m772.1,240.66c-19.33,0-36.56-3.94-51.67-11.83-15.11-7.9-26.95-18.73-35.5-32.5-8.55-13.78-12.83-29.56-12.83-47.34V5.33h57.33v140.66c0,8.45,1.89,16.06,5.66,22.84,3.78,6.77,8.9,12.1,15.34,16,6.45,3.89,13.67,5.83,21.67,5.83,8.44,0,15.93-1.94,22.48-5.83,6.56-3.9,11.84-9.23,15.84-16,4-6.78,6-14.4,6-22.84V5.33h55.33v143.66c0,17.78-4.28,33.56-12.84,47.34-8.55,13.77-20.39,24.6-35.5,32.5-15.1,7.89-32.21,11.83-51.31,11.83Z"/>
          <path id="path7" class="cls-5" d="m69.33,238.66V55.33H0V5.33h196.98v50h-70.98v183.33h-56.67Z"/>
          <path id="path9" class="cls-5" d="m320.41,241.98c-17.78,0-34.01-3-48.67-9-14.67-6-27.45-14.44-38.34-25.33-10.88-10.89-19.33-23.66-25.33-38.33s-9-30.78-9-48.34,3-33.66,9-48.33c6-14.67,14.44-27.44,25.33-38.33,10.9-10.88,23.68-19.33,38.34-25.33,14.67-6,30.78-9,48.33-9s33.67,3,48.33,9c14.67,6,27.44,14.44,38.33,25.33,10.9,10.88,19.29,23.66,25.17,38.33,5.9,14.67,8.84,30.78,8.84,48.33s-2.95,33.39-8.84,48.17c-5.89,14.78-14.28,27.61-25.17,38.5-10.89,10.89-23.66,19.33-38.33,25.33-14.66,6-30.65,9-47.98,9Zm-.34-53.33c9.11,0,17.51-1.67,25.17-5,7.67-3.33,14.33-8.05,20-14.16,5.67-6.11,10.05-13.28,13.16-21.5,3.11-8.23,4.67-17.23,4.67-27.02s-1.56-18.76-4.67-26.98c-3.1-8.23-7.49-15.4-13.16-21.5-5.67-6.12-12.33-10.84-20-14.17-7.67-3.33-16.06-5-25.17-5s-17.49,1.67-25.16,5c-7.67,3.33-14.39,8.06-20.17,14.17-5.78,6.1-10.17,13.27-13.17,21.5-3,8.22-4.5,17.21-4.5,26.98s1.5,18.84,4.5,27.17c3,8.33,7.39,15.5,13.17,21.5,5.78,6,12.51,10.67,20.17,14,7.67,3.33,16.05,5,25.16,5Z"/>
          <path id="path11" class="cls-5" d="m492.15,170.33l-14.67-47.67L593.13,5.33h67l-167.98,165Zm-41.34,68.33V5.33h56.67v233.33h-56.67Zm149.67,0l-86.67-114,38.34-33,114.33,147h-66Z"/>
        </g>
      </g>
    </g>
  </g>
</svg>