<?xml version="1.0" encoding="UTF-8" standalone="no"?>
<svg
   width="871.75342"
   height="241.98399"
   viewBox="0 0 871.75342 241.98399"
   fill="none"
   version="1.1"
   id="svg22"
   sodipodi:docname="Toku-logo-blue.svg"
   inkscape:version="1.2.2 (b0a84865, 2022-12-01)"
   xmlns:inkscape="http://www.inkscape.org/namespaces/inkscape"
   xmlns:sodipodi="http://sodipodi.sourceforge.net/DTD/sodipodi-0.dtd"
   xmlns="http://www.w3.org/2000/svg"
   xmlns:svg="http://www.w3.org/2000/svg">
  <sodipodi:namedview
     id="namedview24"
     pagecolor="#ffffff"
     bordercolor="#000000"
     borderopacity="0.25"
     inkscape:showpageshadow="2"
     inkscape:pageopacity="0.0"
     inkscape:pagecheckerboard="0"
     inkscape:deskcolor="#d1d1d1"
     showgrid="false"
     inkscape:zoom="0.43703704"
     inkscape:cx="453.05085"
     inkscape:cy="121.27119"
     inkscape:window-width="1309"
     inkscape:window-height="456"
     inkscape:window-x="0"
     inkscape:window-y="38"
     inkscape:window-maximized="0"
     inkscape:current-layer="svg22" />
  <g
     clip-path="url(#clip0_8_2)"
     id="g15"
     transform="translate(-27.6716,-148.643)">
    <mask
       id="mask0_8_2"
       maskUnits="userSpaceOnUse"
       x="0"
       y="0"
       width="960"
       height="540">
      <path
         d="M 0,0 H 960 V 540 H 0 Z"
         fill="#ffffff"
         id="path2" />
    </mask>
    <g
       mask="url(#mask0_8_2)"
       id="g13">
      <path
         d="m 799.769,389.299 c -19.333,0 -36.557,-3.942 -51.672,-11.828 -15.114,-7.896 -26.948,-18.729 -35.5,-32.5 -8.552,-13.781 -12.828,-29.562 -12.828,-47.344 V 153.971 h 57.328 v 140.656 c 0,8.448 1.886,16.063 5.656,22.844 3.782,6.771 8.896,12.104 15.344,16 6.448,3.886 13.672,5.828 21.672,5.828 8.438,0 15.932,-1.942 22.484,-5.828 6.563,-3.896 11.844,-9.229 15.844,-16 4,-6.781 6,-14.396 6,-22.844 V 153.971 h 55.328 v 143.656 c 0,17.782 -4.281,33.563 -12.843,47.344 -8.553,13.771 -20.386,24.604 -35.5,32.5 -15.105,7.886 -32.209,11.828 -51.313,11.828 z"
         fill="#1646ce"
         id="path5" />
      <path
         d="M 96.9998,387.299 V 203.971 H 27.6716 v -50 H 224.656 v 50 h -70.984 v 183.328 z"
         fill="#1646ce"
         id="path7" />
      <path
         d="m 348.081,390.627 c -17.782,0 -34.006,-3 -48.672,-9 -14.667,-6 -27.448,-14.442 -38.344,-25.328 -10.885,-10.885 -19.328,-23.661 -25.328,-38.328 -6,-14.667 -9,-30.781 -9,-48.344 0,-17.552 3,-33.661 9,-48.328 6,-14.666 14.443,-27.443 25.328,-38.328 10.896,-10.885 23.677,-19.328 38.344,-25.328 14.666,-6 30.776,-9 48.328,-9 17.562,0 33.672,3 48.328,9 14.667,6 27.443,14.443 38.328,25.328 10.896,10.885 19.287,23.662 25.172,38.328 5.896,14.667 8.844,30.776 8.844,48.328 0,17.334 -2.948,33.391 -8.844,48.172 -5.885,14.781 -14.276,27.615 -25.172,38.5 -10.885,10.886 -23.661,19.328 -38.328,25.328 -14.656,6 -30.651,9 -47.984,9 z m -0.344,-53.328 c 9.114,0 17.505,-1.666 25.172,-5 7.666,-3.333 14.333,-8.052 20,-14.156 5.666,-6.115 10.052,-13.281 13.156,-21.5 3.115,-8.229 4.672,-17.234 4.672,-27.016 0,-9.771 -1.557,-18.765 -4.672,-26.984 -3.104,-8.229 -7.49,-15.396 -13.156,-21.5 -5.667,-6.115 -12.334,-10.839 -20,-14.172 -7.667,-3.333 -16.058,-5 -25.172,-5 -9.104,0 -17.49,1.667 -25.156,5 -7.667,3.333 -14.391,8.057 -20.172,14.172 -5.782,6.104 -10.172,13.271 -13.172,21.5 -3,8.219 -4.5,17.213 -4.5,26.984 0,9.782 1.5,18.839 4.5,27.172 3,8.334 7.39,15.5 13.172,21.5 5.781,6 12.505,10.667 20.172,14 7.666,3.334 16.052,5 25.156,5 z"
         fill="#1646ce"
         id="path9" />
      <path
         d="M 519.817,318.971 505.145,271.299 620.802,153.971 h 67 z m -41.344,68.328 V 153.971 h 56.672 v 233.328 z m 149.672,0 -86.672,-114 38.344,-33 114.328,147 z"
         fill="#1646ce"
         id="path11" />
    </g>
  </g>
  <defs
     id="defs20">
    <clipPath
       id="clip0_8_2">
      <rect
         width="960"
         height="540"
         fill="#ffffff"
         id="rect17"
         x="0"
         y="0" />
    </clipPath>
  </defs>
</svg>
